<svg xmlns="http://www.w3.org/2000/svg" xmlns:xlink="http://www.w3.org/1999/xlink" width="500" zoomAndPan="magnify" viewBox="0 0 375 173.249993" height="231" preserveAspectRatio="xMidYMid meet" version="1.2"><defs><clipPath id="a885eddf01"><path d="M 0.808594 0 L 374.191406 0 L 374.191406 172.503906 L 0.808594 172.503906 Z M 0.808594 0 "/></clipPath><clipPath id="0b36b87130"><path d="M 3 1 L 147.175781 1 L 147.175781 171 L 3 171 Z M 3 1 "/></clipPath><clipPath id="ca500c675d"><rect x="0" width="244" y="0" height="67"/></clipPath><clipPath id="c71397f754"><rect x="0" width="242" y="0" height="19"/></clipPath></defs><g id="fcfc1847e0"><g clip-rule="nonzero" clip-path="url(#a885eddf01)"><path style=" stroke:none;fill-rule:nonzero;fill:#ffffff;fill-opacity:1;" d="M 0.808594 0 L 374.191406 0 L 374.191406 172.503906 L 0.808594 172.503906 Z M 0.808594 0 "/><path style=" stroke:none;fill-rule:nonzero;fill:#ffffff;fill-opacity:1;" d="M 0.808594 0 L 374.191406 0 L 374.191406 172.503906 L 0.808594 172.503906 Z M 0.808594 0 "/></g><g clip-rule="nonzero" clip-path="url(#0b36b87130)"><path style=" stroke:none;fill-rule:nonzero;fill:#0b4f4a;fill-opacity:1;" d="M 38.488281 26.957031 C 43.65625 28.160156 48.503906 27.34375 53.351562 25.644531 C 48.46875 29.75 34.632812 31.023438 29.253906 23.804688 C 29.605469 27.804688 31.589844 30.496094 34.382812 32.511719 C 39.445312 36.191406 45.25 36.546875 51.085938 35.34375 C 60.820312 33.359375 68.640625 28.085938 75.1875 20.726562 C 76.320312 19.453125 77.453125 18.144531 78.9375 16.480469 C 79.042969 20.515625 77.347656 23.417969 75.539062 26.210938 C 70.90625 33.429688 63.933594 37.359375 56.042969 39.941406 C 54.203125 40.542969 53.246094 41.429688 52.609375 43.269531 C 49.671875 51.375 43.371094 56.007812 35.691406 55.9375 C 27.554688 55.867188 20.441406 49.039062 19.910156 40.898438 C 19.589844 35.910156 20.828125 31.589844 24.582031 28.085938 C 25.113281 27.59375 25.359375 26.53125 25.394531 25.714844 C 25.464844 19.0625 29.996094 15.242188 36.578125 16.234375 C 37.109375 16.304688 37.992188 16.089844 38.242188 15.738281 C 42.949219 8.199219 49.777344 3.953125 58.449219 2.535156 C 69.453125 0.769531 79.574219 2.785156 88.28125 10.109375 C 94.792969 15.59375 99.320312 22.320312 100.347656 31.023438 C 100.773438 34.597656 100.347656 38.101562 98.792969 41.394531 C 97.128906 44.898438 94.652344 47.65625 90.828125 48.859375 C 89.273438 49.355469 88.742188 50.242188 88.953125 51.796875 C 89.128906 53.035156 89.238281 54.277344 89.308594 55.515625 C 89.449219 57.851562 88.671875 58.804688 86.371094 58.734375 C 84.777344 58.699219 83.929688 59.335938 82.9375 60.46875 C 81.273438 62.414062 79.398438 64.21875 77.417969 65.777344 C 74.832031 67.828125 71.753906 67.722656 68.675781 67.015625 C 67.828125 66.804688 66.976562 66.554688 65.703125 66.203125 C 67.046875 68.925781 68.78125 70.730469 70.941406 72.074219 C 72.566406 73.101562 74.300781 74.09375 76.140625 74.625 C 84.351562 77.136719 91.253906 81.453125 96.386719 88.742188 C 99.996094 85.984375 104.136719 85.488281 108.417969 86.019531 C 115.636719 86.976562 120.519531 91.152344 123.175781 97.660156 C 125.722656 103.925781 124.910156 110.011719 120.484375 115.425781 C 120.058594 115.957031 119.953125 117.054688 120.203125 117.726562 C 122.539062 123.957031 123.066406 130.253906 121.40625 136.695312 C 119.671875 143.527344 115.496094 148.125 108.878906 150.566406 C 98.117188 154.496094 87.148438 154.179688 76.070312 152.230469 C 64.214844 150.144531 53.28125 145.824219 43.585938 138.640625 C 37.570312 134.183594 33.179688 128.519531 31.375 121.089844 C 29.074219 111.570312 34.136719 100.777344 43.40625 96.671875 C 34.207031 105.519531 34.597656 114.933594 40.117188 125.015625 C 47.265625 120.878906 54.804688 121.585938 62.695312 122.71875 C 57.457031 114.613281 55.582031 106.507812 61.808594 97.699219 C 61.351562 99.714844 60.785156 101.308594 60.605469 102.933594 C 59.757812 111.886719 63.296875 118.964844 70.800781 123.53125 C 80.035156 129.15625 90.015625 130.398438 100.277344 126.328125 C 103.816406 124.945312 105.976562 122.082031 107.53125 118.894531 C 105.761719 117.796875 104.101562 116.738281 102.613281 115.816406 C 104.878906 115.816406 107.144531 116.0625 109.335938 115.78125 C 113.867188 115.144531 117.230469 112.738281 118.644531 108.242188 C 120.167969 103.429688 119.175781 98.972656 115.636719 95.363281 C 112.488281 92.105469 108.558594 90.335938 103.921875 90.371094 C 100.101562 90.40625 97.375 92.070312 95.960938 95.609375 C 95.003906 98.015625 93.90625 99.820312 90.828125 99.75 C 88.882812 99.714844 88.457031 101.128906 89.554688 103.183594 C 87.289062 105.234375 87.679688 109.234375 90.617188 111.003906 C 92.351562 112.066406 94.4375 112.453125 96.421875 113.089844 C 97.199219 113.339844 98.011719 113.375 99.359375 113.585938 C 98.296875 114.117188 97.730469 114.613281 97.128906 114.71875 C 90.792969 115.957031 84.421875 117.230469 77.984375 115.886719 C 71.328125 114.472656 66.730469 107.394531 68.605469 101.554688 C 69.101562 100.03125 70.054688 98.6875 70.800781 97.273438 C 71.011719 97.34375 71.1875 97.414062 71.402344 97.484375 C 71.402344 99.078125 71.1875 100.707031 71.4375 102.296875 C 72.496094 109.625 78.335938 111.359375 84.246094 111.429688 C 84.566406 111.429688 85.058594 110.828125 85.203125 110.402344 C 85.34375 109.976562 84.988281 109.445312 85.058594 108.988281 C 86.050781 102.792969 82.582031 98.300781 79.363281 93.699219 C 79.257812 93.523438 79.1875 93.34375 79.042969 92.992188 C 81.734375 94.582031 84.316406 96.070312 86.902344 97.589844 C 86.902344 97.34375 86.9375 97.132812 86.9375 96.882812 C 88.457031 96.742188 89.945312 96.566406 91.890625 96.351562 C 92.882812 94.867188 92.457031 93.097656 91.21875 91.433594 C 88.316406 87.433594 84.707031 84.320312 79.964844 82.550781 C 76.214844 81.171875 72.390625 79.824219 68.78125 78.128906 C 64.039062 75.863281 61.136719 71.898438 59.4375 66.945312 C 56.996094 59.796875 56.289062 51.195312 57.988281 45.78125 C 58.660156 51.65625 60.960938 56.503906 65.136719 60.222656 C 66.800781 61.707031 68.921875 62.734375 70.941406 63.722656 C 72.425781 64.433594 73.699219 64.042969 74.796875 62.414062 C 75.433594 61.460938 77.027344 61.140625 78.265625 60.46875 C 77.875 60.042969 77.453125 59.546875 77.132812 59.160156 C 78.40625 58.839844 79.964844 58.875 80.671875 58.097656 C 81.308594 57.425781 80.992188 55.867188 81.097656 54.949219 C 82.617188 55.300781 84.070312 55.621094 85.945312 56.042969 C 85.625 53.957031 85.378906 52.398438 85.132812 50.878906 C 84.671875 48.292969 85.238281 46.207031 87.253906 44.332031 C 90.441406 41.429688 90.722656 37.714844 88.351562 33.996094 C 86.191406 30.636719 83.929688 27.308594 81.769531 23.910156 C 81.238281 23.0625 80.957031 22.035156 80.882812 20.9375 C 84.496094 24.300781 88.351562 27.449219 91.644531 31.097656 C 93.519531 33.183594 94.472656 36.15625 95.710938 38.527344 C 96.277344 30.8125 94.226562 23.558594 88.632812 17.542969 C 79.679688 7.878906 65.242188 4.519531 53.105469 9.613281 C 45.992188 12.445312 40.859375 18.179688 38.488281 26.957031 Z M 43.335938 130.183594 C 43.441406 130.46875 43.441406 130.574219 43.480469 130.609375 C 44.398438 131.210938 45.320312 131.8125 46.238281 132.414062 C 54.519531 137.617188 63.085938 142.25 72.640625 144.835938 C 82.125 147.417969 91.644531 148.691406 101.410156 146.710938 C 114.398438 144.058594 120.695312 132.203125 116.167969 119.070312 C 114.433594 119.460938 113.160156 120.238281 112.273438 122.007812 C 110.257812 126.078125 107.25 129.265625 103.003906 131.140625 C 96.207031 134.148438 89.058594 134.925781 81.875 133.40625 C 75.683594 132.09375 69.558594 130.21875 63.4375 128.519531 C 56.539062 126.609375 49.882812 127.246094 43.335938 130.183594 Z M 25.785156 28.867188 C 23.058594 33.46875 23.164062 37.925781 25.113281 42.386719 C 27.269531 47.304688 31.128906 49.886719 36.542969 49.816406 C 41.566406 49.746094 47.621094 45.710938 49.246094 41.535156 C 38.914062 42.3125 30.136719 40.085938 25.785156 28.867188 Z M 34.773438 20.621094 C 33.003906 20.300781 31.550781 20.9375 31.128906 22.390625 C 30.703125 23.839844 31.835938 24.902344 33.359375 25.292969 C 33.851562 23.699219 34.277344 22.214844 34.773438 20.621094 Z M 146.53125 132.695312 C 141.363281 138.253906 135.808594 143.417969 129.402344 147.453125 C 108.417969 160.761719 85.769531 167.414062 60.75 163.769531 C 45.285156 161.503906 31.835938 155.308594 21.007812 143.597656 C 9.363281 131.035156 4.65625 107.359375 16.582031 90.230469 C 20.792969 84.144531 25.890625 79.4375 33.5 78.128906 C 38.0625 77.347656 42.523438 77.914062 47.160156 79.578125 C 43.585938 76.003906 40.753906 74.90625 32.191406 73.632812 C 37.921875 69.386719 43.019531 64.855469 45.851562 58.308594 C 40.328125 64.574219 33.570312 69.210938 26.457031 73.421875 C 8.761719 83.894531 0.835938 102.476562 3.878906 122.644531 C 6.320312 138.890625 15.839844 150.53125 29.464844 158.957031 C 40.542969 165.820312 52.679688 169.535156 65.738281 170.527344 C 81.980469 171.730469 97.480469 169.042969 112.34375 162.421875 C 127.171875 155.804688 138.179688 144.765625 147.449219 131.636719 C 147.132812 131.988281 146.847656 132.34375 146.53125 132.695312 Z M 146.53125 132.695312 "/></g><g transform="matrix(1,0,0,1,128,48)"><g clip-path="url(#ca500c675d)"><g style="fill:#ffffff;fill-opacity:0.4;"><g transform="translate(0.574422, 50.505701)"><path style="stroke:none" d="M 10.796875 -38.140625 L 10.796875 0 L 5.53125 0 L 5.53125 -38.140625 Z M 10.796875 -38.140625 "/></g></g><g style="fill:#ffffff;fill-opacity:0.4;"><g transform="translate(16.901818, 50.505701)"><path style="stroke:none" d="M 30.453125 -38.140625 L 18.265625 0 L 12.625 0 L 0.328125 -38.140625 L 5.984375 -38.140625 L 15.5625 -5.703125 L 25.140625 -38.140625 Z M 30.453125 -38.140625 "/></g></g><g style="fill:#ffffff;fill-opacity:0.4;"><g transform="translate(47.674804, 50.505701)"><path style="stroke:none" d="M 5.53125 0 L 5.53125 -38.140625 L 25.796875 -38.140625 L 25.1875 -33.9375 L 10.796875 -33.9375 L 10.796875 -20.921875 L 23.25 -20.921875 L 23.25 -16.78125 L 10.796875 -16.78125 L 10.796875 0 Z M 5.53125 0 "/></g></g><g style="fill:#ffffff;fill-opacity:0.4;"><g transform="translate(74.850211, 50.505701)"><path style="stroke:none" d="M 27.296875 -15.4375 C 27.296875 -14.957031 27.285156 -14.488281 27.265625 -14.03125 C 27.242188 -13.570312 27.21875 -13.175781 27.1875 -12.84375 L 8.578125 -12.84375 C 8.835938 -9.488281 9.6875 -7.085938 11.125 -5.640625 C 12.5625 -4.203125 14.332031 -3.484375 16.4375 -3.484375 C 17.875 -3.484375 19.179688 -3.6875 20.359375 -4.09375 C 21.546875 -4.5 22.769531 -5.144531 24.03125 -6.03125 L 26.234375 -2.984375 C 24.796875 -1.835938 23.242188 -0.941406 21.578125 -0.296875 C 19.921875 0.347656 18.078125 0.671875 16.046875 0.671875 C 11.992188 0.671875 8.832031 -0.664062 6.5625 -3.34375 C 4.289062 -6.019531 3.15625 -9.664062 3.15625 -14.28125 C 3.15625 -17.3125 3.644531 -20 4.625 -22.34375 C 5.601562 -24.6875 6.992188 -26.519531 8.796875 -27.84375 C 10.609375 -29.175781 12.769531 -29.84375 15.28125 -29.84375 C 19.226562 -29.84375 22.21875 -28.554688 24.25 -25.984375 C 26.28125 -23.421875 27.296875 -19.90625 27.296875 -15.4375 Z M 22.25 -16.609375 L 22.25 -16.9375 C 22.25 -19.78125 21.675781 -21.96875 20.53125 -23.5 C 19.394531 -25.03125 17.679688 -25.796875 15.390625 -25.796875 C 13.472656 -25.796875 11.90625 -25.078125 10.6875 -23.640625 C 9.46875 -22.203125 8.765625 -19.859375 8.578125 -16.609375 Z M 22.25 -16.609375 "/></g></g><g style="fill:#ffffff;fill-opacity:0.4;"><g transform="translate(104.959033, 50.505701)"><path style="stroke:none" d="M 17.765625 -29.84375 C 18.804688 -29.84375 19.769531 -29.726562 20.65625 -29.5 L 19.703125 -24.53125 C 19.265625 -24.632812 18.859375 -24.710938 18.484375 -24.765625 C 18.117188 -24.828125 17.675781 -24.859375 17.15625 -24.859375 C 15.351562 -24.859375 13.894531 -24.191406 12.78125 -22.859375 C 11.675781 -21.535156 10.8125 -19.46875 10.1875 -16.65625 L 10.1875 0 L 5.09375 0 L 5.09375 -29.171875 L 9.46875 -29.171875 L 9.96875 -23.25 C 11.519531 -27.644531 14.117188 -29.84375 17.765625 -29.84375 Z M 17.765625 -29.84375 "/></g></g><g style="fill:#ffffff;fill-opacity:0.4;"><g transform="translate(126.156969, 50.505701)"><path style="stroke:none" d="M 18.046875 -4.703125 L 19.984375 -1.328125 C 18.066406 0.00390625 15.890625 0.671875 13.453125 0.671875 C 10.984375 0.671875 9.054688 -0.0351562 7.671875 -1.453125 C 6.285156 -2.878906 5.59375 -4.941406 5.59375 -7.640625 L 5.59375 -25.25 L 0.5 -25.25 L 0.5 -29.171875 L 5.59375 -29.171875 L 5.59375 -35.765625 L 10.6875 -36.375 L 10.6875 -29.171875 L 17.609375 -29.171875 L 17.046875 -25.25 L 10.6875 -25.25 L 10.6875 -7.859375 C 10.6875 -6.378906 10.953125 -5.289062 11.484375 -4.59375 C 12.023438 -3.894531 12.921875 -3.546875 14.171875 -3.546875 C 14.796875 -3.546875 15.421875 -3.644531 16.046875 -3.84375 C 16.679688 -4.050781 17.347656 -4.335938 18.046875 -4.703125 Z M 18.046875 -4.703125 "/></g></g><g style="fill:#ffffff;fill-opacity:0.4;"><g transform="translate(146.137264, 50.505701)"><path style="stroke:none" d="M 7.578125 -43.1875 C 8.648438 -43.1875 9.519531 -42.851562 10.1875 -42.1875 C 10.851562 -41.519531 11.1875 -40.6875 11.1875 -39.6875 C 11.1875 -38.726562 10.851562 -37.914062 10.1875 -37.25 C 9.519531 -36.59375 8.648438 -36.265625 7.578125 -36.265625 C 6.546875 -36.265625 5.695312 -36.59375 5.03125 -37.25 C 4.375 -37.914062 4.046875 -38.726562 4.046875 -39.6875 C 4.046875 -40.6875 4.375 -41.519531 5.03125 -42.1875 C 5.695312 -42.851562 6.546875 -43.1875 7.578125 -43.1875 Z M 10.1875 -29.171875 L 10.1875 0 L 5.09375 0 L 5.09375 -29.171875 Z M 10.1875 -29.171875 "/></g></g><g style="fill:#ffffff;fill-opacity:0.4;"><g transform="translate(161.413048, 50.505701)"><path style="stroke:none" d="M 10.84375 0.671875 C 9 0.671875 7.523438 0.117188 6.421875 -0.984375 C 5.316406 -2.097656 4.765625 -3.6875 4.765625 -5.75 L 4.765625 -40.90625 L 9.859375 -41.515625 L 9.859375 -5.875 C 9.859375 -4.320312 10.46875 -3.546875 11.6875 -3.546875 C 12.382812 -3.546875 13.007812 -3.65625 13.5625 -3.875 L 14.890625 -0.328125 C 13.671875 0.335938 12.320312 0.671875 10.84375 0.671875 Z M 10.84375 0.671875 "/></g></g><g style="fill:#ffffff;fill-opacity:0.4;"><g transform="translate(177.6851, 50.505701)"><path style="stroke:none" d="M 7.578125 -43.1875 C 8.648438 -43.1875 9.519531 -42.851562 10.1875 -42.1875 C 10.851562 -41.519531 11.1875 -40.6875 11.1875 -39.6875 C 11.1875 -38.726562 10.851562 -37.914062 10.1875 -37.25 C 9.519531 -36.59375 8.648438 -36.265625 7.578125 -36.265625 C 6.546875 -36.265625 5.695312 -36.59375 5.03125 -37.25 C 4.375 -37.914062 4.046875 -38.726562 4.046875 -39.6875 C 4.046875 -40.6875 4.375 -41.519531 5.03125 -42.1875 C 5.695312 -42.851562 6.546875 -43.1875 7.578125 -43.1875 Z M 10.1875 -29.171875 L 10.1875 0 L 5.09375 0 L 5.09375 -29.171875 Z M 10.1875 -29.171875 "/></g></g><g style="fill:#ffffff;fill-opacity:0.4;"><g transform="translate(192.960884, 50.505701)"><path style="stroke:none" d="M 18.046875 -4.703125 L 19.984375 -1.328125 C 18.066406 0.00390625 15.890625 0.671875 13.453125 0.671875 C 10.984375 0.671875 9.054688 -0.0351562 7.671875 -1.453125 C 6.285156 -2.878906 5.59375 -4.941406 5.59375 -7.640625 L 5.59375 -25.25 L 0.5 -25.25 L 0.5 -29.171875 L 5.59375 -29.171875 L 5.59375 -35.765625 L 10.6875 -36.375 L 10.6875 -29.171875 L 17.609375 -29.171875 L 17.046875 -25.25 L 10.6875 -25.25 L 10.6875 -7.859375 C 10.6875 -6.378906 10.953125 -5.289062 11.484375 -4.59375 C 12.023438 -3.894531 12.921875 -3.546875 14.171875 -3.546875 C 14.796875 -3.546875 15.421875 -3.644531 16.046875 -3.84375 C 16.679688 -4.050781 17.347656 -4.335938 18.046875 -4.703125 Z M 18.046875 -4.703125 "/></g></g><g style="fill:#ffffff;fill-opacity:0.4;"><g transform="translate(212.941179, 50.505701)"><path style="stroke:none" d="M 26.6875 -29.171875 L 16.9375 0.171875 C 16.269531 2.234375 15.390625 4.082031 14.296875 5.71875 C 13.210938 7.363281 11.796875 8.710938 10.046875 9.765625 C 8.296875 10.816406 6.070312 11.492188 3.375 11.796875 L 2.828125 7.8125 C 4.816406 7.476562 6.382812 6.988281 7.53125 6.34375 C 8.675781 5.695312 9.578125 4.851562 10.234375 3.8125 C 10.898438 2.78125 11.507812 1.507812 12.0625 0 L 10.359375 0 L 0.546875 -29.171875 L 5.984375 -29.171875 L 13.78125 -3.703125 L 21.421875 -29.171875 Z M 26.6875 -29.171875 "/></g></g><g style="fill:#0b4f4a;fill-opacity:1;"><g transform="translate(0.574422, 50.505701)"><path style="stroke:none" d="M 10.796875 -38.140625 L 10.796875 0 L 5.53125 0 L 5.53125 -38.140625 Z M 10.796875 -38.140625 "/></g></g><g style="fill:#0b4f4a;fill-opacity:1;"><g transform="translate(16.901818, 50.505701)"><path style="stroke:none" d="M 30.453125 -38.140625 L 18.265625 0 L 12.625 0 L 0.328125 -38.140625 L 5.984375 -38.140625 L 15.5625 -5.703125 L 25.140625 -38.140625 Z M 30.453125 -38.140625 "/></g></g><g style="fill:#0b4f4a;fill-opacity:1;"><g transform="translate(47.674804, 50.505701)"><path style="stroke:none" d="M 5.53125 0 L 5.53125 -38.140625 L 25.796875 -38.140625 L 25.1875 -33.9375 L 10.796875 -33.9375 L 10.796875 -20.921875 L 23.25 -20.921875 L 23.25 -16.78125 L 10.796875 -16.78125 L 10.796875 0 Z M 5.53125 0 "/></g></g><g style="fill:#0b4f4a;fill-opacity:1;"><g transform="translate(74.850211, 50.505701)"><path style="stroke:none" d="M 27.296875 -15.4375 C 27.296875 -14.957031 27.285156 -14.488281 27.265625 -14.03125 C 27.242188 -13.570312 27.21875 -13.175781 27.1875 -12.84375 L 8.578125 -12.84375 C 8.835938 -9.488281 9.6875 -7.085938 11.125 -5.640625 C 12.5625 -4.203125 14.332031 -3.484375 16.4375 -3.484375 C 17.875 -3.484375 19.179688 -3.6875 20.359375 -4.09375 C 21.546875 -4.5 22.769531 -5.144531 24.03125 -6.03125 L 26.234375 -2.984375 C 24.796875 -1.835938 23.242188 -0.941406 21.578125 -0.296875 C 19.921875 0.347656 18.078125 0.671875 16.046875 0.671875 C 11.992188 0.671875 8.832031 -0.664062 6.5625 -3.34375 C 4.289062 -6.019531 3.15625 -9.664062 3.15625 -14.28125 C 3.15625 -17.3125 3.644531 -20 4.625 -22.34375 C 5.601562 -24.6875 6.992188 -26.519531 8.796875 -27.84375 C 10.609375 -29.175781 12.769531 -29.84375 15.28125 -29.84375 C 19.226562 -29.84375 22.21875 -28.554688 24.25 -25.984375 C 26.28125 -23.421875 27.296875 -19.90625 27.296875 -15.4375 Z M 22.25 -16.609375 L 22.25 -16.9375 C 22.25 -19.78125 21.675781 -21.96875 20.53125 -23.5 C 19.394531 -25.03125 17.679688 -25.796875 15.390625 -25.796875 C 13.472656 -25.796875 11.90625 -25.078125 10.6875 -23.640625 C 9.46875 -22.203125 8.765625 -19.859375 8.578125 -16.609375 Z M 22.25 -16.609375 "/></g></g><g style="fill:#0b4f4a;fill-opacity:1;"><g transform="translate(104.959033, 50.505701)"><path style="stroke:none" d="M 17.765625 -29.84375 C 18.804688 -29.84375 19.769531 -29.726562 20.65625 -29.5 L 19.703125 -24.53125 C 19.265625 -24.632812 18.859375 -24.710938 18.484375 -24.765625 C 18.117188 -24.828125 17.675781 -24.859375 17.15625 -24.859375 C 15.351562 -24.859375 13.894531 -24.191406 12.78125 -22.859375 C 11.675781 -21.535156 10.8125 -19.46875 10.1875 -16.65625 L 10.1875 0 L 5.09375 0 L 5.09375 -29.171875 L 9.46875 -29.171875 L 9.96875 -23.25 C 11.519531 -27.644531 14.117188 -29.84375 17.765625 -29.84375 Z M 17.765625 -29.84375 "/></g></g><g style="fill:#0b4f4a;fill-opacity:1;"><g transform="translate(126.156969, 50.505701)"><path style="stroke:none" d="M 18.046875 -4.703125 L 19.984375 -1.328125 C 18.066406 0.00390625 15.890625 0.671875 13.453125 0.671875 C 10.984375 0.671875 9.054688 -0.0351562 7.671875 -1.453125 C 6.285156 -2.878906 5.59375 -4.941406 5.59375 -7.640625 L 5.59375 -25.25 L 0.5 -25.25 L 0.5 -29.171875 L 5.59375 -29.171875 L 5.59375 -35.765625 L 10.6875 -36.375 L 10.6875 -29.171875 L 17.609375 -29.171875 L 17.046875 -25.25 L 10.6875 -25.25 L 10.6875 -7.859375 C 10.6875 -6.378906 10.953125 -5.289062 11.484375 -4.59375 C 12.023438 -3.894531 12.921875 -3.546875 14.171875 -3.546875 C 14.796875 -3.546875 15.421875 -3.644531 16.046875 -3.84375 C 16.679688 -4.050781 17.347656 -4.335938 18.046875 -4.703125 Z M 18.046875 -4.703125 "/></g></g><g style="fill:#0b4f4a;fill-opacity:1;"><g transform="translate(146.137264, 50.505701)"><path style="stroke:none" d="M 7.578125 -43.1875 C 8.648438 -43.1875 9.519531 -42.851562 10.1875 -42.1875 C 10.851562 -41.519531 11.1875 -40.6875 11.1875 -39.6875 C 11.1875 -38.726562 10.851562 -37.914062 10.1875 -37.25 C 9.519531 -36.59375 8.648438 -36.265625 7.578125 -36.265625 C 6.546875 -36.265625 5.695312 -36.59375 5.03125 -37.25 C 4.375 -37.914062 4.046875 -38.726562 4.046875 -39.6875 C 4.046875 -40.6875 4.375 -41.519531 5.03125 -42.1875 C 5.695312 -42.851562 6.546875 -43.1875 7.578125 -43.1875 Z M 10.1875 -29.171875 L 10.1875 0 L 5.09375 0 L 5.09375 -29.171875 Z M 10.1875 -29.171875 "/></g></g><g style="fill:#0b4f4a;fill-opacity:1;"><g transform="translate(161.413048, 50.505701)"><path style="stroke:none" d="M 10.84375 0.671875 C 9 0.671875 7.523438 0.117188 6.421875 -0.984375 C 5.316406 -2.097656 4.765625 -3.6875 4.765625 -5.75 L 4.765625 -40.90625 L 9.859375 -41.515625 L 9.859375 -5.875 C 9.859375 -4.320312 10.46875 -3.546875 11.6875 -3.546875 C 12.382812 -3.546875 13.007812 -3.65625 13.5625 -3.875 L 14.890625 -0.328125 C 13.671875 0.335938 12.320312 0.671875 10.84375 0.671875 Z M 10.84375 0.671875 "/></g></g><g style="fill:#0b4f4a;fill-opacity:1;"><g transform="translate(177.6851, 50.505701)"><path style="stroke:none" d="M 7.578125 -43.1875 C 8.648438 -43.1875 9.519531 -42.851562 10.1875 -42.1875 C 10.851562 -41.519531 11.1875 -40.6875 11.1875 -39.6875 C 11.1875 -38.726562 10.851562 -37.914062 10.1875 -37.25 C 9.519531 -36.59375 8.648438 -36.265625 7.578125 -36.265625 C 6.546875 -36.265625 5.695312 -36.59375 5.03125 -37.25 C 4.375 -37.914062 4.046875 -38.726562 4.046875 -39.6875 C 4.046875 -40.6875 4.375 -41.519531 5.03125 -42.1875 C 5.695312 -42.851562 6.546875 -43.1875 7.578125 -43.1875 Z M 10.1875 -29.171875 L 10.1875 0 L 5.09375 0 L 5.09375 -29.171875 Z M 10.1875 -29.171875 "/></g></g><g style="fill:#0b4f4a;fill-opacity:1;"><g transform="translate(192.960884, 50.505701)"><path style="stroke:none" d="M 18.046875 -4.703125 L 19.984375 -1.328125 C 18.066406 0.00390625 15.890625 0.671875 13.453125 0.671875 C 10.984375 0.671875 9.054688 -0.0351562 7.671875 -1.453125 C 6.285156 -2.878906 5.59375 -4.941406 5.59375 -7.640625 L 5.59375 -25.25 L 0.5 -25.25 L 0.5 -29.171875 L 5.59375 -29.171875 L 5.59375 -35.765625 L 10.6875 -36.375 L 10.6875 -29.171875 L 17.609375 -29.171875 L 17.046875 -25.25 L 10.6875 -25.25 L 10.6875 -7.859375 C 10.6875 -6.378906 10.953125 -5.289062 11.484375 -4.59375 C 12.023438 -3.894531 12.921875 -3.546875 14.171875 -3.546875 C 14.796875 -3.546875 15.421875 -3.644531 16.046875 -3.84375 C 16.679688 -4.050781 17.347656 -4.335938 18.046875 -4.703125 Z M 18.046875 -4.703125 "/></g></g><g style="fill:#0b4f4a;fill-opacity:1;"><g transform="translate(212.941179, 50.505701)"><path style="stroke:none" d="M 26.6875 -29.171875 L 16.9375 0.171875 C 16.269531 2.234375 15.390625 4.082031 14.296875 5.71875 C 13.210938 7.363281 11.796875 8.710938 10.046875 9.765625 C 8.296875 10.816406 6.070312 11.492188 3.375 11.796875 L 2.828125 7.8125 C 4.816406 7.476562 6.382812 6.988281 7.53125 6.34375 C 8.675781 5.695312 9.578125 4.851562 10.234375 3.8125 C 10.898438 2.78125 11.507812 1.507812 12.0625 0 L 10.359375 0 L 0.546875 -29.171875 L 5.984375 -29.171875 L 13.78125 -3.703125 L 21.421875 -29.171875 Z M 26.6875 -29.171875 "/></g></g></g></g><g transform="matrix(1,0,0,1,128,111)"><g clip-path="url(#c71397f754)"><g style="fill:#0b4f4a;fill-opacity:1;"><g transform="translate(1.188243, 13.709119)"><path style="stroke:none" d="M 4.109375 -10.65625 C 4.828125 -10.65625 5.4375 -10.550781 5.9375 -10.34375 C 6.4375 -10.132812 6.90625 -9.832031 7.34375 -9.4375 L 6.546875 -8.5625 C 6.148438 -8.882812 5.757812 -9.113281 5.375 -9.25 C 5 -9.394531 4.597656 -9.46875 4.171875 -9.46875 C 3.640625 -9.46875 3.191406 -9.34375 2.828125 -9.09375 C 2.460938 -8.851562 2.28125 -8.484375 2.28125 -7.984375 C 2.28125 -7.691406 2.335938 -7.441406 2.453125 -7.234375 C 2.578125 -7.023438 2.804688 -6.832031 3.140625 -6.65625 C 3.472656 -6.476562 3.953125 -6.289062 4.578125 -6.09375 C 5.128906 -5.925781 5.640625 -5.722656 6.109375 -5.484375 C 6.585938 -5.242188 6.96875 -4.921875 7.25 -4.515625 C 7.53125 -4.117188 7.671875 -3.585938 7.671875 -2.921875 C 7.671875 -2.304688 7.523438 -1.765625 7.234375 -1.296875 C 6.941406 -0.835938 6.515625 -0.472656 5.953125 -0.203125 C 5.398438 0.0546875 4.726562 0.1875 3.9375 0.1875 C 3.1875 0.1875 2.515625 0.0664062 1.921875 -0.171875 C 1.328125 -0.410156 0.8125 -0.742188 0.375 -1.171875 L 1.171875 -2.046875 C 1.566406 -1.734375 1.984375 -1.476562 2.421875 -1.28125 C 2.859375 -1.09375 3.359375 -1 3.921875 -1 C 4.535156 -1 5.0625 -1.15625 5.5 -1.46875 C 5.945312 -1.78125 6.171875 -2.25 6.171875 -2.875 C 6.171875 -3.21875 6.101562 -3.503906 5.96875 -3.734375 C 5.84375 -3.960938 5.613281 -4.164062 5.28125 -4.34375 C 4.957031 -4.53125 4.5 -4.710938 3.90625 -4.890625 C 2.894531 -5.203125 2.125 -5.582031 1.59375 -6.03125 C 1.070312 -6.476562 0.8125 -7.109375 0.8125 -7.921875 C 0.8125 -8.460938 0.953125 -8.9375 1.234375 -9.34375 C 1.515625 -9.75 1.898438 -10.066406 2.390625 -10.296875 C 2.890625 -10.535156 3.460938 -10.65625 4.109375 -10.65625 Z M 4.109375 -10.65625 "/></g></g><g style="fill:#0b4f4a;fill-opacity:1;"><g transform="translate(10.899546, 13.709119)"><path style="stroke:none" d="M 8.703125 -10.46875 L 8.703125 -3.359375 C 8.703125 -2.671875 8.554688 -2.054688 8.265625 -1.515625 C 7.984375 -0.984375 7.566406 -0.566406 7.015625 -0.265625 C 6.472656 0.0351562 5.804688 0.1875 5.015625 0.1875 C 4.222656 0.1875 3.554688 0.0351562 3.015625 -0.265625 C 2.472656 -0.566406 2.0625 -0.984375 1.78125 -1.515625 C 1.507812 -2.054688 1.375 -2.671875 1.375 -3.359375 L 1.375 -10.46875 L 2.8125 -10.46875 L 2.8125 -3.46875 C 2.8125 -1.84375 3.546875 -1.03125 5.015625 -1.03125 C 6.492188 -1.03125 7.234375 -1.84375 7.234375 -3.46875 L 7.234375 -10.46875 Z M 8.703125 -10.46875 "/></g></g><g style="fill:#0b4f4a;fill-opacity:1;"><g transform="translate(22.388997, 13.709119)"><path style="stroke:none" d="M 7.09375 0 L 4.59375 -4.4375 L 2.96875 -4.4375 L 2.96875 0 L 1.515625 0 L 1.515625 -10.46875 L 4.265625 -10.46875 C 5.578125 -10.46875 6.566406 -10.21875 7.234375 -9.71875 C 7.910156 -9.226562 8.25 -8.492188 8.25 -7.515625 C 8.25 -6.773438 8.054688 -6.175781 7.671875 -5.71875 C 7.296875 -5.269531 6.734375 -4.929688 5.984375 -4.703125 L 8.8125 0 Z M 2.96875 -5.546875 L 4.421875 -5.546875 C 5.148438 -5.546875 5.710938 -5.695312 6.109375 -6 C 6.515625 -6.300781 6.71875 -6.804688 6.71875 -7.515625 C 6.71875 -8.171875 6.519531 -8.640625 6.125 -8.921875 C 5.738281 -9.203125 5.113281 -9.34375 4.25 -9.34375 L 2.96875 -9.34375 Z M 2.96875 -5.546875 "/></g></g><g style="fill:#0b4f4a;fill-opacity:1;"><g transform="translate(33.012178, 13.709119)"><path style="stroke:none" d="M 7.09375 0 L 4.59375 -4.4375 L 2.96875 -4.4375 L 2.96875 0 L 1.515625 0 L 1.515625 -10.46875 L 4.265625 -10.46875 C 5.578125 -10.46875 6.566406 -10.21875 7.234375 -9.71875 C 7.910156 -9.226562 8.25 -8.492188 8.25 -7.515625 C 8.25 -6.773438 8.054688 -6.175781 7.671875 -5.71875 C 7.296875 -5.269531 6.734375 -4.929688 5.984375 -4.703125 L 8.8125 0 Z M 2.96875 -5.546875 L 4.421875 -5.546875 C 5.148438 -5.546875 5.710938 -5.695312 6.109375 -6 C 6.515625 -6.300781 6.71875 -6.804688 6.71875 -7.515625 C 6.71875 -8.171875 6.519531 -8.640625 6.125 -8.921875 C 5.738281 -9.203125 5.113281 -9.34375 4.25 -9.34375 L 2.96875 -9.34375 Z M 2.96875 -5.546875 "/></g></g><g style="fill:#0b4f4a;fill-opacity:1;"><g transform="translate(43.635358, 13.709119)"><path style="stroke:none" d="M 5.265625 -10.65625 C 6.140625 -10.65625 6.910156 -10.445312 7.578125 -10.03125 C 8.242188 -9.613281 8.757812 -9.003906 9.125 -8.203125 C 9.5 -7.398438 9.6875 -6.410156 9.6875 -5.234375 C 9.6875 -4.078125 9.5 -3.09375 9.125 -2.28125 C 8.757812 -1.476562 8.242188 -0.863281 7.578125 -0.4375 C 6.910156 -0.0195312 6.140625 0.1875 5.265625 0.1875 C 4.390625 0.1875 3.617188 -0.015625 2.953125 -0.421875 C 2.296875 -0.835938 1.78125 -1.445312 1.40625 -2.25 C 1.03125 -3.0625 0.84375 -4.050781 0.84375 -5.21875 C 0.84375 -6.375 1.03125 -7.351562 1.40625 -8.15625 C 1.78125 -8.96875 2.296875 -9.585938 2.953125 -10.015625 C 3.617188 -10.441406 4.390625 -10.65625 5.265625 -10.65625 Z M 5.265625 -9.46875 C 4.390625 -9.46875 3.6875 -9.132812 3.15625 -8.46875 C 2.632812 -7.8125 2.375 -6.726562 2.375 -5.21875 C 2.375 -4.207031 2.492188 -3.394531 2.734375 -2.78125 C 2.972656 -2.164062 3.3125 -1.710938 3.75 -1.421875 C 4.1875 -1.140625 4.691406 -1 5.265625 -1 C 5.847656 -1 6.351562 -1.140625 6.78125 -1.421875 C 7.21875 -1.710938 7.554688 -2.164062 7.796875 -2.78125 C 8.035156 -3.394531 8.15625 -4.210938 8.15625 -5.234375 C 8.15625 -6.742188 7.894531 -7.828125 7.375 -8.484375 C 6.863281 -9.140625 6.160156 -9.46875 5.265625 -9.46875 Z M 5.265625 -9.46875 "/></g></g><g style="fill:#0b4f4a;fill-opacity:1;"><g transform="translate(55.580738, 13.709119)"><path style="stroke:none" d="M 5.375 -10.65625 C 6.070312 -10.65625 6.660156 -10.554688 7.140625 -10.359375 C 7.617188 -10.160156 8.082031 -9.875 8.53125 -9.5 L 7.671875 -8.625 C 7.304688 -8.914062 6.953125 -9.128906 6.609375 -9.265625 C 6.265625 -9.398438 5.851562 -9.46875 5.375 -9.46875 C 4.882812 -9.46875 4.40625 -9.332031 3.9375 -9.0625 C 3.476562 -8.789062 3.101562 -8.34375 2.8125 -7.71875 C 2.519531 -7.101562 2.375 -6.28125 2.375 -5.25 C 2.375 -3.75 2.617188 -2.664062 3.109375 -2 C 3.597656 -1.332031 4.304688 -1 5.234375 -1 C 5.585938 -1 5.929688 -1.035156 6.265625 -1.109375 C 6.609375 -1.191406 6.925781 -1.3125 7.21875 -1.46875 L 7.21875 -4.640625 L 5.359375 -4.640625 L 5.203125 -5.8125 L 8.65625 -5.8125 L 8.65625 -0.75 C 8.15625 -0.457031 7.625 -0.226562 7.0625 -0.0625 C 6.507812 0.101562 5.898438 0.1875 5.234375 0.1875 C 3.878906 0.1875 2.804688 -0.265625 2.015625 -1.171875 C 1.234375 -2.078125 0.84375 -3.4375 0.84375 -5.25 C 0.84375 -6.425781 1.050781 -7.414062 1.46875 -8.21875 C 1.882812 -9.019531 2.441406 -9.625 3.140625 -10.03125 C 3.835938 -10.445312 4.582031 -10.65625 5.375 -10.65625 Z M 5.375 -10.65625 "/></g></g><g style="fill:#0b4f4a;fill-opacity:1;"><g transform="translate(66.599051, 13.709119)"><path style="stroke:none" d="M 7.09375 0 L 6.3125 -2.625 L 2.34375 -2.625 L 1.546875 0 L 0.09375 0 L 3.453125 -10.46875 L 5.28125 -10.46875 L 8.625 0 Z M 2.6875 -3.796875 L 5.953125 -3.796875 L 4.328125 -9.28125 Z M 2.6875 -3.796875 "/></g></g><g style="fill:#0b4f4a;fill-opacity:1;"><g transform="translate(76.735905, 13.709119)"><path style="stroke:none" d="M 5.1875 -10.65625 C 5.84375 -10.65625 6.382812 -10.566406 6.8125 -10.390625 C 7.25 -10.210938 7.675781 -9.957031 8.09375 -9.625 L 7.296875 -8.703125 C 6.660156 -9.210938 5.988281 -9.46875 5.28125 -9.46875 C 4.75 -9.46875 4.257812 -9.335938 3.8125 -9.078125 C 3.375 -8.816406 3.023438 -8.375 2.765625 -7.75 C 2.503906 -7.132812 2.375 -6.300781 2.375 -5.25 C 2.375 -4.238281 2.5 -3.425781 2.75 -2.8125 C 3 -2.195312 3.34375 -1.742188 3.78125 -1.453125 C 4.226562 -1.171875 4.722656 -1.03125 5.265625 -1.03125 C 5.753906 -1.03125 6.171875 -1.117188 6.515625 -1.296875 C 6.867188 -1.472656 7.195312 -1.675781 7.5 -1.90625 L 8.203125 -0.984375 C 7.921875 -0.691406 7.53125 -0.421875 7.03125 -0.171875 C 6.53125 0.0664062 5.925781 0.1875 5.21875 0.1875 C 4.375 0.1875 3.617188 -0.0195312 2.953125 -0.4375 C 2.296875 -0.851562 1.78125 -1.460938 1.40625 -2.265625 C 1.03125 -3.078125 0.84375 -4.070312 0.84375 -5.25 C 0.84375 -6.4375 1.035156 -7.425781 1.421875 -8.21875 C 1.816406 -9.019531 2.34375 -9.625 3 -10.03125 C 3.664062 -10.445312 4.394531 -10.65625 5.1875 -10.65625 Z M 5.1875 -10.65625 "/></g></g><g style="fill:#0b4f4a;fill-opacity:1;"><g transform="translate(86.675183, 13.709119)"><path style="stroke:none" d="M 8.28125 -10.46875 L 4.90625 -4.03125 L 4.90625 0 L 3.453125 0 L 3.453125 -4.015625 L 0.078125 -10.46875 L 1.671875 -10.46875 L 4.21875 -5.296875 L 6.78125 -10.46875 Z M 8.28125 -10.46875 "/></g></g><g style="fill:#0b4f4a;fill-opacity:1;"><g transform="translate(96.462491, 13.709119)"><path style="stroke:none" d=""/></g></g><g style="fill:#0b4f4a;fill-opacity:1;"><g transform="translate(101.918446, 13.709119)"><path style="stroke:none" d="M 4.59375 -10.65625 C 5.144531 -10.65625 5.628906 -10.550781 6.046875 -10.34375 C 6.460938 -10.144531 6.785156 -9.875 7.015625 -9.53125 C 7.253906 -9.1875 7.375 -8.789062 7.375 -8.34375 C 7.375 -7.90625 7.273438 -7.519531 7.078125 -7.1875 C 6.878906 -6.851562 6.617188 -6.554688 6.296875 -6.296875 C 5.972656 -6.035156 5.617188 -5.789062 5.234375 -5.5625 L 7.90625 -3.046875 C 8.082031 -3.398438 8.25 -3.789062 8.40625 -4.21875 C 8.570312 -4.644531 8.707031 -5.109375 8.8125 -5.609375 L 10.125 -5.234375 C 9.9375 -4.609375 9.726562 -4.046875 9.5 -3.546875 C 9.269531 -3.054688 9.023438 -2.617188 8.765625 -2.234375 L 10.46875 -0.640625 L 9.46875 0.1875 L 8 -1.25 C 7.570312 -0.78125 7.082031 -0.421875 6.53125 -0.171875 C 5.988281 0.0664062 5.359375 0.1875 4.640625 0.1875 C 3.972656 0.1875 3.378906 0.0703125 2.859375 -0.15625 C 2.347656 -0.394531 1.945312 -0.726562 1.65625 -1.15625 C 1.375 -1.582031 1.234375 -2.082031 1.234375 -2.65625 C 1.234375 -3.320312 1.421875 -3.890625 1.796875 -4.359375 C 2.179688 -4.835938 2.695312 -5.28125 3.34375 -5.6875 C 2.894531 -6.125 2.535156 -6.535156 2.265625 -6.921875 C 2.003906 -7.316406 1.875 -7.773438 1.875 -8.296875 C 1.875 -8.960938 2.101562 -9.519531 2.5625 -9.96875 C 3.03125 -10.425781 3.707031 -10.65625 4.59375 -10.65625 Z M 4.609375 -9.625 C 4.171875 -9.625 3.832031 -9.5 3.59375 -9.25 C 3.351562 -9 3.234375 -8.6875 3.234375 -8.3125 C 3.234375 -7.914062 3.34375 -7.566406 3.5625 -7.265625 C 3.78125 -6.972656 4.070312 -6.65625 4.4375 -6.3125 C 4.914062 -6.601562 5.296875 -6.898438 5.578125 -7.203125 C 5.859375 -7.503906 6 -7.859375 6 -8.265625 C 6 -8.691406 5.875 -9.023438 5.625 -9.265625 C 5.375 -9.503906 5.035156 -9.625 4.609375 -9.625 Z M 4.15625 -4.921875 C 3.65625 -4.597656 3.28125 -4.257812 3.03125 -3.90625 C 2.78125 -3.550781 2.65625 -3.148438 2.65625 -2.703125 C 2.65625 -2.148438 2.851562 -1.710938 3.25 -1.390625 C 3.65625 -1.078125 4.164062 -0.921875 4.78125 -0.921875 C 5.269531 -0.921875 5.707031 -1.015625 6.09375 -1.203125 C 6.476562 -1.398438 6.84375 -1.671875 7.1875 -2.015625 Z M 4.15625 -4.921875 "/></g></g><g style="fill:#0b4f4a;fill-opacity:1;"><g transform="translate(114.426137, 13.709119)"><path style="stroke:none" d=""/></g></g><g style="fill:#0b4f4a;fill-opacity:1;"><g transform="translate(119.882093, 13.709119)"><path style="stroke:none" d="M 7.1875 -10.46875 L 7.03125 -9.3125 L 2.96875 -9.3125 L 2.96875 -5.90625 L 6.484375 -5.90625 L 6.484375 -4.75 L 2.96875 -4.75 L 2.96875 -1.15625 L 7.3125 -1.15625 L 7.3125 0 L 1.515625 0 L 1.515625 -10.46875 Z M 7.1875 -10.46875 "/></g></g><g style="fill:#0b4f4a;fill-opacity:1;"><g transform="translate(129.441427, 13.709119)"><path style="stroke:none" d="M 5.375 -10.65625 C 6.070312 -10.65625 6.660156 -10.554688 7.140625 -10.359375 C 7.617188 -10.160156 8.082031 -9.875 8.53125 -9.5 L 7.671875 -8.625 C 7.304688 -8.914062 6.953125 -9.128906 6.609375 -9.265625 C 6.265625 -9.398438 5.851562 -9.46875 5.375 -9.46875 C 4.882812 -9.46875 4.40625 -9.332031 3.9375 -9.0625 C 3.476562 -8.789062 3.101562 -8.34375 2.8125 -7.71875 C 2.519531 -7.101562 2.375 -6.28125 2.375 -5.25 C 2.375 -3.75 2.617188 -2.664062 3.109375 -2 C 3.597656 -1.332031 4.304688 -1 5.234375 -1 C 5.585938 -1 5.929688 -1.035156 6.265625 -1.109375 C 6.609375 -1.191406 6.925781 -1.3125 7.21875 -1.46875 L 7.21875 -4.640625 L 5.359375 -4.640625 L 5.203125 -5.8125 L 8.65625 -5.8125 L 8.65625 -0.75 C 8.15625 -0.457031 7.625 -0.226562 7.0625 -0.0625 C 6.507812 0.101562 5.898438 0.1875 5.234375 0.1875 C 3.878906 0.1875 2.804688 -0.265625 2.015625 -1.171875 C 1.234375 -2.078125 0.84375 -3.4375 0.84375 -5.25 C 0.84375 -6.425781 1.050781 -7.414062 1.46875 -8.21875 C 1.882812 -9.019531 2.441406 -9.625 3.140625 -10.03125 C 3.835938 -10.445312 4.582031 -10.65625 5.375 -10.65625 Z M 5.375 -10.65625 "/></g></g><g style="fill:#0b4f4a;fill-opacity:1;"><g transform="translate(140.45974, 13.709119)"><path style="stroke:none" d="M 5.375 -10.65625 C 6.070312 -10.65625 6.660156 -10.554688 7.140625 -10.359375 C 7.617188 -10.160156 8.082031 -9.875 8.53125 -9.5 L 7.671875 -8.625 C 7.304688 -8.914062 6.953125 -9.128906 6.609375 -9.265625 C 6.265625 -9.398438 5.851562 -9.46875 5.375 -9.46875 C 4.882812 -9.46875 4.40625 -9.332031 3.9375 -9.0625 C 3.476562 -8.789062 3.101562 -8.34375 2.8125 -7.71875 C 2.519531 -7.101562 2.375 -6.28125 2.375 -5.25 C 2.375 -3.75 2.617188 -2.664062 3.109375 -2 C 3.597656 -1.332031 4.304688 -1 5.234375 -1 C 5.585938 -1 5.929688 -1.035156 6.265625 -1.109375 C 6.609375 -1.191406 6.925781 -1.3125 7.21875 -1.46875 L 7.21875 -4.640625 L 5.359375 -4.640625 L 5.203125 -5.8125 L 8.65625 -5.8125 L 8.65625 -0.75 C 8.15625 -0.457031 7.625 -0.226562 7.0625 -0.0625 C 6.507812 0.101562 5.898438 0.1875 5.234375 0.1875 C 3.878906 0.1875 2.804688 -0.265625 2.015625 -1.171875 C 1.234375 -2.078125 0.84375 -3.4375 0.84375 -5.25 C 0.84375 -6.425781 1.050781 -7.414062 1.46875 -8.21875 C 1.882812 -9.019531 2.441406 -9.625 3.140625 -10.03125 C 3.835938 -10.445312 4.582031 -10.65625 5.375 -10.65625 Z M 5.375 -10.65625 "/></g></g><g style="fill:#0b4f4a;fill-opacity:1;"><g transform="translate(151.478054, 13.709119)"><path style="stroke:none" d=""/></g></g><g style="fill:#0b4f4a;fill-opacity:1;"><g transform="translate(156.93401, 13.709119)"><path style="stroke:none" d="M 3.703125 -10.46875 C 4.378906 -10.46875 5.023438 -10.398438 5.640625 -10.265625 C 6.265625 -10.128906 6.828125 -9.878906 7.328125 -9.515625 C 7.835938 -9.148438 8.234375 -8.625 8.515625 -7.9375 C 8.804688 -7.257812 8.953125 -6.378906 8.953125 -5.296875 C 8.953125 -4.222656 8.804688 -3.34375 8.515625 -2.65625 C 8.222656 -1.96875 7.832031 -1.425781 7.34375 -1.03125 C 6.851562 -0.644531 6.316406 -0.375 5.734375 -0.21875 C 5.160156 -0.0703125 4.59375 0 4.03125 0 L 1.515625 0 L 1.515625 -10.46875 Z M 4.03125 -9.3125 L 2.96875 -9.3125 L 2.96875 -1.140625 L 4.140625 -1.140625 C 4.554688 -1.140625 4.957031 -1.191406 5.34375 -1.296875 C 5.726562 -1.410156 6.078125 -1.617188 6.390625 -1.921875 C 6.703125 -2.222656 6.953125 -2.644531 7.140625 -3.1875 C 7.328125 -3.726562 7.421875 -4.429688 7.421875 -5.296875 C 7.421875 -6.171875 7.320312 -6.875 7.125 -7.40625 C 6.9375 -7.945312 6.679688 -8.351562 6.359375 -8.625 C 6.035156 -8.90625 5.671875 -9.085938 5.265625 -9.171875 C 4.859375 -9.265625 4.445312 -9.3125 4.03125 -9.3125 Z M 4.03125 -9.3125 "/></g></g><g style="fill:#0b4f4a;fill-opacity:1;"><g transform="translate(168.149899, 13.709119)"><path style="stroke:none" d="M 5.265625 -10.65625 C 6.140625 -10.65625 6.910156 -10.445312 7.578125 -10.03125 C 8.242188 -9.613281 8.757812 -9.003906 9.125 -8.203125 C 9.5 -7.398438 9.6875 -6.410156 9.6875 -5.234375 C 9.6875 -4.078125 9.5 -3.09375 9.125 -2.28125 C 8.757812 -1.476562 8.242188 -0.863281 7.578125 -0.4375 C 6.910156 -0.0195312 6.140625 0.1875 5.265625 0.1875 C 4.390625 0.1875 3.617188 -0.015625 2.953125 -0.421875 C 2.296875 -0.835938 1.78125 -1.445312 1.40625 -2.25 C 1.03125 -3.0625 0.84375 -4.050781 0.84375 -5.21875 C 0.84375 -6.375 1.03125 -7.351562 1.40625 -8.15625 C 1.78125 -8.96875 2.296875 -9.585938 2.953125 -10.015625 C 3.617188 -10.441406 4.390625 -10.65625 5.265625 -10.65625 Z M 5.265625 -9.46875 C 4.390625 -9.46875 3.6875 -9.132812 3.15625 -8.46875 C 2.632812 -7.8125 2.375 -6.726562 2.375 -5.21875 C 2.375 -4.207031 2.492188 -3.394531 2.734375 -2.78125 C 2.972656 -2.164062 3.3125 -1.710938 3.75 -1.421875 C 4.1875 -1.140625 4.691406 -1 5.265625 -1 C 5.847656 -1 6.351562 -1.140625 6.78125 -1.421875 C 7.21875 -1.710938 7.554688 -2.164062 7.796875 -2.78125 C 8.035156 -3.394531 8.15625 -4.210938 8.15625 -5.234375 C 8.15625 -6.742188 7.894531 -7.828125 7.375 -8.484375 C 6.863281 -9.140625 6.160156 -9.46875 5.265625 -9.46875 Z M 5.265625 -9.46875 "/></g></g><g style="fill:#0b4f4a;fill-opacity:1;"><g transform="translate(180.095279, 13.709119)"><path style="stroke:none" d="M 8.859375 -10.46875 L 8.859375 0 L 6.9375 0 L 2.671875 -8.890625 C 2.710938 -8.453125 2.753906 -7.90625 2.796875 -7.25 C 2.847656 -6.59375 2.875 -5.773438 2.875 -4.796875 L 2.875 0 L 1.515625 0 L 1.515625 -10.46875 L 3.40625 -10.46875 L 7.703125 -1.5625 C 7.691406 -1.644531 7.671875 -1.859375 7.640625 -2.203125 C 7.617188 -2.554688 7.59375 -2.960938 7.5625 -3.421875 C 7.53125 -3.890625 7.515625 -4.335938 7.515625 -4.765625 L 7.515625 -10.46875 Z M 8.859375 -10.46875 "/></g></g><g style="fill:#0b4f4a;fill-opacity:1;"><g transform="translate(191.903878, 13.709119)"><path style="stroke:none" d="M 7.09375 0 L 6.3125 -2.625 L 2.34375 -2.625 L 1.546875 0 L 0.09375 0 L 3.453125 -10.46875 L 5.28125 -10.46875 L 8.625 0 Z M 2.6875 -3.796875 L 5.953125 -3.796875 L 4.328125 -9.28125 Z M 2.6875 -3.796875 "/></g></g><g style="fill:#0b4f4a;fill-opacity:1;"><g transform="translate(202.040732, 13.709119)"><path style="stroke:none" d="M 7.703125 -10.46875 L 7.5625 -9.25 L 4.65625 -9.25 L 4.65625 0 L 3.203125 0 L 3.203125 -9.25 L 0.234375 -9.25 L 0.234375 -10.46875 Z M 7.703125 -10.46875 "/></g></g><g style="fill:#0b4f4a;fill-opacity:1;"><g transform="translate(211.326505, 13.709119)"><path style="stroke:none" d="M 2.96875 -10.46875 L 2.96875 0 L 1.515625 0 L 1.515625 -10.46875 Z M 2.96875 -10.46875 "/></g></g><g style="fill:#0b4f4a;fill-opacity:1;"><g transform="translate(217.238389, 13.709119)"><path style="stroke:none" d="M 5.265625 -10.65625 C 6.140625 -10.65625 6.910156 -10.445312 7.578125 -10.03125 C 8.242188 -9.613281 8.757812 -9.003906 9.125 -8.203125 C 9.5 -7.398438 9.6875 -6.410156 9.6875 -5.234375 C 9.6875 -4.078125 9.5 -3.09375 9.125 -2.28125 C 8.757812 -1.476562 8.242188 -0.863281 7.578125 -0.4375 C 6.910156 -0.0195312 6.140625 0.1875 5.265625 0.1875 C 4.390625 0.1875 3.617188 -0.015625 2.953125 -0.421875 C 2.296875 -0.835938 1.78125 -1.445312 1.40625 -2.25 C 1.03125 -3.0625 0.84375 -4.050781 0.84375 -5.21875 C 0.84375 -6.375 1.03125 -7.351562 1.40625 -8.15625 C 1.78125 -8.96875 2.296875 -9.585938 2.953125 -10.015625 C 3.617188 -10.441406 4.390625 -10.65625 5.265625 -10.65625 Z M 5.265625 -9.46875 C 4.390625 -9.46875 3.6875 -9.132812 3.15625 -8.46875 C 2.632812 -7.8125 2.375 -6.726562 2.375 -5.21875 C 2.375 -4.207031 2.492188 -3.394531 2.734375 -2.78125 C 2.972656 -2.164062 3.3125 -1.710938 3.75 -1.421875 C 4.1875 -1.140625 4.691406 -1 5.265625 -1 C 5.847656 -1 6.351562 -1.140625 6.78125 -1.421875 C 7.21875 -1.710938 7.554688 -2.164062 7.796875 -2.78125 C 8.035156 -3.394531 8.15625 -4.210938 8.15625 -5.234375 C 8.15625 -6.742188 7.894531 -7.828125 7.375 -8.484375 C 6.863281 -9.140625 6.160156 -9.46875 5.265625 -9.46875 Z M 5.265625 -9.46875 "/></g></g><g style="fill:#0b4f4a;fill-opacity:1;"><g transform="translate(229.183769, 13.709119)"><path style="stroke:none" d="M 8.859375 -10.46875 L 8.859375 0 L 6.9375 0 L 2.671875 -8.890625 C 2.710938 -8.453125 2.753906 -7.90625 2.796875 -7.25 C 2.847656 -6.59375 2.875 -5.773438 2.875 -4.796875 L 2.875 0 L 1.515625 0 L 1.515625 -10.46875 L 3.40625 -10.46875 L 7.703125 -1.5625 C 7.691406 -1.644531 7.671875 -1.859375 7.640625 -2.203125 C 7.617188 -2.554688 7.59375 -2.960938 7.5625 -3.421875 C 7.53125 -3.890625 7.515625 -4.335938 7.515625 -4.765625 L 7.515625 -10.46875 Z M 8.859375 -10.46875 "/></g></g></g></g></g></svg>